<svg id="_x31__x2C_5" enable-background="new 0 0 24 24" height="512" viewBox="0 0 24 24" width="512" xmlns="http://www.w3.org/2000/svg" fill="white"><path d="m5.75 23c-.414 0-.75-.336-.75-.75v-16.5c0-.414.336-.75.75-.75s.75.336.75.75v16.5c0 .414-.336.75-.75.75z"/><path d="m23.25 11.5h-17.5c-.414 0-.75-.336-.75-.75s.336-.75.75-.75h17.5c.414 0 .75.336.75.75s-.336.75-.75.75z"/><path d="m23.25 17.5h-17.5c-.414 0-.75-.336-.75-.75s.336-.75.75-.75h17.5c.414 0 .75.336.75.75s-.336.75-.75.75z"/><path d="m21.25 23h-18.5c-1.517 0-2.75-1.233-2.75-2.75v-16.5c0-1.517 1.233-2.75 2.75-2.75h18.5c1.517 0 2.75 1.233 2.75 2.75v16.5c0 1.517-1.233 2.75-2.75 2.75zm-18.5-20.5c-.689 0-1.25.561-1.25 1.25v16.5c0 .689.561 1.25 1.25 1.25h18.5c.689 0 1.25-.561 1.25-1.25v-16.5c0-.689-.561-1.25-1.25-1.25z"/><path d="m23.25 6h-22.5c-.414 0-.75-.336-.75-.75s.336-.75.75-.75h22.5c.414 0 .75.336.75.75s-.336.75-.75.75z"/></svg>