<?xml version="1.0" encoding="iso-8859-1"?>
<!-- Generator: Adobe Illustrator 19.0.0, SVG Export Plug-In . SVG Version: 6.00 Build 0)  -->
<svg version="1.1" id="Capa_1" xmlns="http://www.w3.org/2000/svg" xmlns:xlink="http://www.w3.org/1999/xlink" x="0px" y="0px"
	 viewBox="0 0 468.3 468.3" style="enable-background:new 0 0 468.3 468.3;" xml:space="preserve" fill="#6B7280">
<g>
	<g>
		<path d="M114.7,119.6C51.4,119.6,0,170.9,0,234.2s51.3,114.6,114.6,114.6s114.6-51.3,114.7-114.6
			C229.3,170.9,178,119.6,114.7,119.6z M114.7,328.8c-52.3,0-94.6-42.4-94.7-94.6c0-52.3,42.4-94.6,94.6-94.6
			c52.2,0,94.7,42.3,94.7,94.6S166.9,328.8,114.7,328.8z"/>
	</g>
</g>
<g>
	<g>
		<path d="M157.6,277.3c-2-5.2-7.8-7.7-12.9-5.7c-14.7,5.7-31.4,2.2-42.7-8.9c-0.9-0.8-1.7-1.6-2.4-2.5h35.5c5.5,0,10-4.5,10-10
			s-4.5-10-10-10H90.7c-0.3-2-0.4-4-0.4-6h50c5.5,0,10-4.5,10-10s-4.5-10-10-10H95.9c1.6-2.9,3.7-5.7,6.1-8
			c11.2-11.2,27.9-14.8,42.7-9.2c5.2,2,11-0.7,12.9-5.9c1.9-5.1-0.6-10.9-5.7-12.9c-22.2-8.4-47.3-3-64,13.8
			c-6.4,6.1-11.2,13.8-13.9,22.2h-6.5c-5.5,0-10,4.5-10,10s4.5,10,10,10h3c0,2,0.1,4,0.3,6h-3.2c-5.5,0-10,4.5-10,10s4.5,10,10,10
			h8.7c3,6.2,7,11.8,11.8,16.6c16.7,16.6,41.7,21.9,63.8,13.4C157.1,288.2,159.6,282.4,157.6,277.3z"/>
	</g>
</g>
<g>
	<g>
		<path d="M353.7,119.6c-63.3,0-114.6,51.3-114.6,114.6s51.3,114.6,114.6,114.6s114.6-51.3,114.6-114.6S417,119.6,353.7,119.6z
			 M353.7,328.8c-52.3,0-94.6-42.4-94.6-94.6c0-52.3,42.4-94.6,94.6-94.6c52.3,0,94.6,42.4,94.6,94.6S406,328.8,353.7,328.8z"/>
	</g>
</g>
<g>
	<g>
		<path d="M395,172.8c-4.5-3.2-10.7-2.1-13.9,2.4l-27.3,38.6l-27.4-38.6c-3.2-4.5-9.4-5.6-13.9-2.4c-4.5,3.2-5.6,9.4-2.4,13.9
			l26.5,37.5h-13.8c-5.5,0-10,4.5-10,10s4.5,10,10,10h21.4v6h-21.4c-5.5,0-10,4.5-10,10s4.5,10,10,10h21.4v10.9c0,5.5,4.5,10,10,10
			s10-4.5,10-10v-10.9h16c5.5,0,10-4.5,10-10s-4.5-10-10-10h-16v-6h16c5.5,0,10-4.5,10-10s-4.5-10-10-10h-9.3l26.5-37.5
			C400.5,182.2,399.5,176,395,172.8z"/>
	</g>
</g>
<g>
	<g>
		<path d="M354.5,47.8L314.7,8.2c-3.9-3.9-10.2-3.9-14.1,0c-3.9,4-3.9,10.3,0,14.3l22.6,22.7H145.1c-30.3,0-54.8,24.4-54.9,54.7
			c0,5.5,4.4,9.9,10,9.9c5.5,0.1,9.9-4.3,10-9.8v-0.1c0-19.2,15.6-34.8,34.9-34.8h178.1l-22.6,22.4c-3.9,3.8-3.9,10-0.1,13.9
			l0.1,0.1c3.9,3.9,10.2,3.9,14.1,0l39.8-39.6C358.4,58,358.4,51.7,354.5,47.8z"/>
	</g>
</g>
<g>
	<g>
		<path d="M368.3,358.7c0,0,0,0-0.1,0c-5.4-0.1-9.9,4.3-10,9.7v0.1c0,19.2-15.6,34.8-34.8,34.7H145.2l22.6-22.4
			c3.9-3.8,3.9-10.1,0.1-14c0,0,0,0-0.1-0.1c-3.9-3.9-10.2-3.9-14.1,0l-39.8,39.6c-3.9,3.9-3.9,10.2,0,14.2l39.8,39.6
			c3.9,3.9,10.2,3.9,14.1,0c3.9-4,3.9-10.3,0-14.3l-22.6-22.6h178.1c30.3,0,54.8-24.4,54.9-54.7
			C378.2,363.1,373.8,358.7,368.3,358.7z"/>
	</g>
</g>
<g>
</g>
<g>
</g>
<g>
</g>
<g>
</g>
<g>
</g>
<g>
</g>
<g>
</g>
<g>
</g>
<g>
</g>
<g>
</g>
<g>
</g>
<g>
</g>
<g>
</g>
<g>
</g>
<g>
</g>
</svg>
