<svg height="512" viewBox="0 0 512 512" width="512" xmlns="http://www.w3.org/2000/svg"><g><g fill="#57a4ff"><path d="m416 16-80 112h40v121.6l16 22.4h-16v112h80v-256h40z"/><path d="m184 312a79.984 79.984 0 0 0 -80 79.86v.14a80 80 0 1 0 80-80z"/><path d="m376 408h80v32h-80z"/></g><g fill="#004fac"><path d="m184 304a88 88 0 1 0 88 88 88.1 88.1 0 0 0 -88-88zm0 160a72 72 0 1 1 72-72 72.083 72.083 0 0 1 -72 72z"/><path d="m502.51 123.35-80-112a8 8 0 0 0 -13.02 0l-80 112a8 8 0 0 0 6.51 12.65h32v88.64l-49.49-69.29a8 8 0 0 0 -13.02 0l-80 112a8 8 0 0 0 6.51 12.65h32v33.7a111.849 111.849 0 0 0 -120-26.31v-111.39h32a8 8 0 0 0 6.51-12.65l-80-112a8 8 0 0 0 -13.02 0l-80 112a8 8 0 0 0 6.51 12.65h32v264a8 8 0 0 0 8 8h31.03a111.893 111.893 0 0 0 176.97 22.3v25.7a8 8 0 0 0 8 8h80a8 8 0 0 0 8-8v-216h8v104a8 8 0 0 0 8 8h80a8 8 0 0 0 8-8v-248h32a8 8 0 0 0 6.51-12.65zm-423.12 308.65h-15.39v-264a8 8 0 0 0 -8-8h-24.45l64.45-90.24 64.45 90.24h-24.45a8 8 0 0 0 -8 8v127.03a111.955 111.955 0 0 0 -48.61 136.97zm104.61 56a96 96 0 1 1 96-96 96.115 96.115 0 0 1 -96 96zm168-224a8 8 0 0 0 -8 8v216h-64v-38.37a111.788 111.788 0 0 0 0-115.26v-62.37a8 8 0 0 0 -8-8h-24.45l64.45-90.24 64.45 90.24zm104-144a8 8 0 0 0 -8 8v248h-64v-96h8a8 8 0 0 0 6.51-12.65l-14.51-20.31v-119.04a8 8 0 0 0 -8-8h-24.45l64.45-90.24 64.45 90.24z"/><path d="m224 376a24.032 24.032 0 0 0 -24-24h-.07a7.992 7.992 0 0 0 -15.86 0h-8.07a8 8 0 0 0 -16 0h-8a8 8 0 0 0 0 16v48a8 8 0 0 0 0 16h8a8 8 0 0 0 16 0h8a8 8 0 0 0 16 0 23.985 23.985 0 0 0 17.87-40 23.9 23.9 0 0 0 6.13-16zm-24 40h-32v-16h32a8 8 0 0 1 0 16zm0-32h-32v-16h32a8 8 0 0 1 0 16z"/><path d="m456 400h-80a8 8 0 0 0 -8 8v32a8 8 0 0 0 8 8h80a8 8 0 0 0 8-8v-32a8 8 0 0 0 -8-8zm-8 32h-64v-16h64z"/></g></g></svg>