<?xml version="1.0" encoding="iso-8859-1"?>
<!-- Generator: Adobe Illustrator 18.1.1, SVG Export Plug-In . SVG Version: 6.00 Build 0)  -->
<svg version="1.1" id="Capa_1" xmlns="http://www.w3.org/2000/svg" xmlns:xlink="http://www.w3.org/1999/xlink" x="0px" y="0px"
	 viewBox="0 0 137.238 137.238" xml:space="preserve" fill="#6B7280">
<g>
	<path d="M125.072,56.453C125.072,25.323,99.748,0,68.619,0S12.166,25.323,12.166,56.453
		c0,30.371,24.124,55.146,54.203,56.333v21.469c0,1.641,1.337,2.983,2.983,2.983s2.983-1.343,2.983-2.983V112.72
		C101.729,110.781,125.072,86.329,125.072,56.453z M72.336,106.753V42.908l26.946,26.94c1.164,1.158,3.061,1.158,4.219,0
		c1.164-1.164,1.164-3.061,0-4.219L71.465,33.605l0,0l-2.112-2.118l-2.112,2.112c-0.006,0.006-0.006,0.006-0.006,0.006L35.216,65.63
		c-1.164,1.158-1.164,3.055,0,4.219c0.585,0.591,1.349,0.871,2.112,0.871c0.764,0,1.528-0.292,2.112-0.871l26.934-26.94v63.911
		c-26.785-1.181-48.236-23.283-48.236-50.36c0-27.835,22.65-50.486,50.486-50.486s50.486,22.65,50.486,50.486
		C119.105,83.035,98.435,104.826,72.336,106.753z"/>
</g>
<g>
</g>
<g>
</g>
<g>
</g>
<g>
</g>
<g>
</g>
<g>
</g>
<g>
</g>
<g>
</g>
<g>
</g>
<g>
</g>
<g>
</g>
<g>
</g>
<g>
</g>
<g>
</g>
<g>
</g>
</svg>
